<svg width="64" height="64" version="1.1" viewBox="0 0 64 64" xmlns="http://www.w3.org/2000/svg">
 <path d="m28 4.0001-2.2578 9.0312a20 20 0 0 0-2.7578 1.1172l-7.9532-4.7736-5.6564 5.6564 4.7812 7.9764a20 20 0 0 0-1.1406 2.7422l-9.0156 2.25v8l9.0312 2.2578a20 20 0 0 0 1.1172 2.75l-4.7736 7.9608 5.6564 5.6564 7.9764-4.7812a20 20 0 0 0 2.7422 1.1406l2.25 9.0156h8l2.2578-9.0312a20 20 0 0 0 2.75-1.1172l7.9608 4.7736 5.6564-5.6564-4.7812-7.9764a20 20 0 0 0 1.1406-2.7422l9.0156-2.25v-8l-9.0312-2.2578a20 20 0 0 0-1.1172-2.75l4.7736-7.9608-5.6564-5.6564-7.9764 4.7812a20 20 0 0 0-2.7422-1.1406l-2.25-9.0156h-8zm4 20a8 8 0 0 1 8 8 8 8 0 0 1-8 8 8 8 0 0 1-8-8 8 8 0 0 1 8-8z" fill="#e0ad00"/>
</svg>
